<svg id="visual" viewBox="0 0 900 100" width="900" height="100" xmlns="http://www.w3.org/2000/svg" xmlns:xlink="http://www.w3.org/1999/xlink" version="1.1"><rect x="0" y="0" width="900" height="100" fill="#fff"></rect><path d="M0 46L12.5 47.5C25 49 50 52 75 54C100 56 125 57 150 58.3C175 59.7 200 61.3 225 63.2C250 65 275 67 300 63.2C325 59.3 350 49.7 375 50.2C400 50.7 425 61.3 450 63.3C475 65.3 500 58.7 525 54.7C550 50.7 575 49.3 600 48.8C625 48.3 650 48.7 675 50C700 51.3 725 53.7 750 58.3C775 63 800 70 825 68.7C850 67.3 875 57.7 887.5 52.8L900 48L900 101L887.5 101C875 101 850 101 825 101C800 101 775 101 750 101C725 101 700 101 675 101C650 101 625 101 600 101C575 101 550 101 525 101C500 101 475 101 450 101C425 101 400 101 375 101C350 101 325 101 300 101C275 101 250 101 225 101C200 101 175 101 150 101C125 101 100 101 75 101C50 101 25 101 12.5 101L0 101Z" fill="#9d0208" stroke-linecap="round" stroke-linejoin="miter"></path></svg>