<svg id="visual" viewBox="0 0 600 675" width="600" height="675" xmlns="http://www.w3.org/2000/svg" xmlns:xlink="http://www.w3.org/1999/xlink" version="1.1"><rect x="0" y="0" width="600" height="675" fill="#9D0208"></rect><path d="M110 0L121.5 11.3C133 22.7 156 45.3 158.7 67.8C161.3 90.3 143.7 112.7 145.8 135.2C148 157.7 170 180.3 180.2 202.8C190.3 225.3 188.7 247.7 182.5 270.2C176.3 292.7 165.7 315.3 156.2 337.8C146.7 360.3 138.3 382.7 140.7 405C143 427.3 156 449.7 167.2 472.2C178.3 494.7 187.7 517.3 184.2 540C180.7 562.7 164.3 585.3 151.3 607.8C138.3 630.3 128.7 652.7 123.8 663.8L119 675L0 675L0 663.8C0 652.7 0 630.3 0 607.8C0 585.3 0 562.7 0 540C0 517.3 0 494.7 0 472.2C0 449.7 0 427.3 0 405C0 382.7 0 360.3 0 337.8C0 315.3 0 292.7 0 270.2C0 247.7 0 225.3 0 202.8C0 180.3 0 157.7 0 135.2C0 112.7 0 90.3 0 67.8C0 45.3 0 22.7 0 11.3L0 0Z" fill="#ffffff" stroke-linecap="round" stroke-linejoin="miter"></path></svg>